<?xml version="1.0" encoding="utf-8"?>
<!-- Generator: Adobe Illustrator 22.1.0, SVG Export Plug-In . SVG Version: 6.00 Build 0)  -->
<svg version="1.1" id="Layer_1" xmlns="http://www.w3.org/2000/svg" xmlns:xlink="http://www.w3.org/1999/xlink" x="0px" y="0px"
	 viewBox="0 0 100 100" style="enable-background:new 0 0 100 100;" xml:space="preserve">
<style type="text/css">
	.st0{fill:#309BF1;}
	.st1{fill:none;stroke:#FFFFFF;stroke-width:2;stroke-linecap:round;stroke-linejoin:round;stroke-miterlimit:10;}
</style>
<path class="st0" d="M0,50C0,22.4,22.4,0,50,0c27.6,0,50,22.4,50,50c0,27.6-22.4,50-50,50C22.4,100,0,77.6,0,50z"/>
<g>
	<g>
		<path class="st1" d="M79.6,31.7h-1.5v-3.7c0-2.3-1.9-4.1-4.2-4.1H23.2c-2.4,0-4.2,1.8-4.2,4.1v42.8c0,2.3,1.9,4.1,4.2,4.1h50.7
			c2.4,0,4.2-1.8,4.2-4.1v-3h1.5c0.8,0,1.4-0.6,1.4-1.3v-5.4c0-0.8-0.6-1.3-1.4-1.3h-1.5v-20h1.5c0.8,0,1.4-0.6,1.4-1.3v-5.4
			C81.1,32.3,80.4,31.7,79.6,31.7z"/>
	</g>
	<path class="st1" d="M26.3,48.1v7.1c0,1.2,0.8,2.2,1.9,2.2c1.1,0,1.9-1,1.9-2.2v-7.1"/>
	<circle class="st1" cx="28.2" cy="44.6" r="4"/>
	<g>
		<line class="st1" x1="48.9" y1="56.6" x2="62.1" y2="56.6"/>
		<line class="st1" x1="51.1" y1="61.1" x2="59.9" y2="61.1"/>
		<path class="st1" d="M61,44.2c3.3-1.6,5.5-4.1,5.5-8.4V35"/>
		<path class="st1" d="M50,48.2c-3.3,1.6-5.5,4.1-5.5,8.4c0,3.1,1.2,5.2,3,6.8C48.2,64,49,64.5,50,65"/>
		<line class="st1" x1="51.1" y1="52" x2="59.9" y2="52"/>
		<line class="st1" x1="48.9" y1="36.1" x2="62.1" y2="36.1"/>
		<line class="st1" x1="51.1" y1="40.7" x2="59.9" y2="40.7"/>
		<path class="st1" d="M44.5,35v0.8c0,6.5,5,8.7,11,10.4c6,1.7,11,3.9,11,10.4c0,3.9-1.8,6.3-4.6,7.9"/>
	</g>
	<g>
		<line class="st1" x1="26.4" y1="78" x2="31.4" y2="78"/>
		<line class="st1" x1="65.6" y1="78" x2="70.6" y2="78"/>
	</g>
</g>
</svg>
